<svg xmlns="http://www.w3.org/2000/svg" width="37.904" height="35.653" viewBox="0 0 37.904 35.653">
  <path id="Icon_metro-facebook" data-name="Icon metro-facebook" d="M34.158,1.928H8.887A6.138,6.138,0,0,0,2.571,7.871V31.638a6.138,6.138,0,0,0,6.317,5.943H21.523v-15.6H16.785V17.526h4.738V14.184a5.755,5.755,0,0,1,5.922-5.571h5.922V13.07H27.445a1.151,1.151,0,0,0-1.184,1.114v3.342h6.515l-1.184,4.457h-5.33v15.6h7.9a6.138,6.138,0,0,0,6.317-5.943V7.871a6.138,6.138,0,0,0-6.317-5.943Z" transform="translate(-2.571 -1.928)" fill="#262626"/>
</svg>
