<svg xmlns="http://www.w3.org/2000/svg" width="38.124" height="25.856" viewBox="0 0 38.124 25.856">
  <path id="Icon_metro-twitter" data-name="Icon metro-twitter" d="M40.695,7.878A18.115,18.115,0,0,1,36.2,8.906a6.909,6.909,0,0,0,3.439-3.611,17.649,17.649,0,0,1-4.967,1.584,8.6,8.6,0,0,0-5.709-2.061c-4.32,0-7.822,2.922-7.822,6.527a5.521,5.521,0,0,0,.2,1.488A23.918,23.918,0,0,1,5.225,6.012,5.7,5.7,0,0,0,4.166,9.293a6.325,6.325,0,0,0,3.48,5.433A9,9,0,0,1,4.1,13.91c0,.027,0,.055,0,.082,0,3.163,2.7,5.8,6.274,6.4a9.348,9.348,0,0,1-3.532.112c1,2.593,3.884,4.48,7.307,4.533a17.762,17.762,0,0,1-9.714,2.794q-.947,0-1.866-.091a25.424,25.424,0,0,0,11.99,2.933c14.387,0,22.254-9.946,22.254-18.572q0-.424-.023-.844a14.722,14.722,0,0,0,3.9-3.379Z" transform="translate(-2.571 -4.817)" fill="#262626"/>
</svg>
