<svg xmlns="http://www.w3.org/2000/svg" width="36.407" height="34.781" viewBox="0 0 36.407 34.781">
  <path id="Icon_metro-instagram" data-name="Icon metro-instagram" d="M32.934,1.928H8.615A5.931,5.931,0,0,0,2.571,7.7V30.935a5.931,5.931,0,0,0,6.044,5.774H32.934a5.931,5.931,0,0,0,6.044-5.774V7.7A5.931,5.931,0,0,0,32.934,1.928ZM14.225,17.145h13.1a6.33,6.33,0,0,1,.384,2.174,6.791,6.791,0,0,1-6.933,6.623,6.791,6.791,0,0,1-6.933-6.623A6.33,6.33,0,0,1,14.225,17.145Zm20.2,0V30.188a2.233,2.233,0,0,1-2.275,2.174H9.4a2.233,2.233,0,0,1-2.275-2.174V17.145h3.559a9.457,9.457,0,0,0-.253,2.174A10.135,10.135,0,0,0,20.774,29.2a10.135,10.135,0,0,0,10.346-9.884,9.454,9.454,0,0,0-.253-2.174Zm0-7.61a1.116,1.116,0,0,1-1.138,1.087H31.014a1.116,1.116,0,0,1-1.138-1.087V7.363a1.116,1.116,0,0,1,1.138-1.087H33.29a1.116,1.116,0,0,1,1.138,1.087Z" transform="translate(-2.571 -1.928)" fill="#262626"/>
</svg>
